<svg width="40" height="40" viewBox="0 0 40 40" fill="none" xmlns="http://www.w3.org/2000/svg">
<path d="M7.3623 16.1631L6.86914 15.7787L16.3805 3.58337L29.3121 11.5021L28.9864 12.0359L16.5305 4.40781L7.3623 16.1631Z" fill="#2C3E50"/>
<path d="M16.6214 7.54495C18.0985 7.54495 19.2959 6.3475 19.2959 4.87037C19.2959 3.39325 18.0985 2.1958 16.6214 2.1958C15.1442 2.1958 13.9468 3.39325 13.9468 4.87037C13.9468 6.3475 15.1442 7.54495 16.6214 7.54495Z" fill="#415E72"/>
<path d="M16.6209 6.26427C17.3907 6.26427 18.0148 5.64022 18.0148 4.87042C18.0148 4.10061 17.3907 3.47656 16.6209 3.47656C15.8511 3.47656 15.2271 4.10061 15.2271 4.87042C15.2271 5.64022 15.8511 6.26427 16.6209 6.26427Z" fill="#517A91"/>
<path d="M32.9403 10.9541L2.9469 16.6731C1.31937 16.9834 0.25157 18.5544 0.561899 20.1819L3.5508 35.8572C3.86113 37.4848 5.43206 38.5526 7.05959 38.2422L37.053 32.5232C38.6806 32.2129 39.7484 30.642 39.438 29.0144L36.4491 13.3391C36.1388 11.7116 34.5679 10.6438 32.9403 10.9541Z" fill="#33C0CB"/>
<g clip-path="url(#clip0)">
<path d="M18.8892 29.6181C18.7882 29.763 18.6328 29.8612 18.4589 29.8917C18.2851 29.9221 18.1056 29.8826 17.9613 29.7807L13.6065 26.7239C13.1546 26.4068 13.0453 25.7832 13.3626 25.332L13.7453 24.7866C14.0626 24.3347 14.6854 24.2255 15.1373 24.5427L17.8561 26.4509L23.0119 19.1044C23.3291 18.6525 23.9526 18.5432 24.4039 18.8605L24.9492 19.2433C25.4011 19.5605 25.5103 20.1839 25.1931 20.6352L18.8892 29.6181Z" fill="white"/>
</g>
<defs>
<clipPath id="clip0">
<rect width="13.0491" height="13.0491" fill="white" transform="translate(12 19.2521) rotate(-9.93807)"/>
</clipPath>
</defs>
</svg>
