<svg width="40" height="40" viewBox="0 0 40 40" fill="none" xmlns="http://www.w3.org/2000/svg">
<path d="M7.3691 16.1682L16.5373 4.41231L28.9932 12.0404L29.3188 11.5072L16.3873 3.5885L6.87593 15.7838L7.3691 16.1682Z" fill="#2C3E50"/>
<path d="M16.6252 7.5494C15.1481 7.5494 13.9507 6.35196 13.9507 4.87483C13.9507 3.3977 15.1481 2.20026 16.6252 2.20026C18.1024 2.20026 19.2998 3.3977 19.2998 4.87483C19.2998 6.35196 18.1024 7.5494 16.6252 7.5494Z" fill="#415E72"/>
<path d="M16.6252 6.26866C15.8554 6.26866 15.2313 5.64461 15.2313 4.87481C15.2313 4.10501 15.8554 3.48096 16.6252 3.48096C17.395 3.48096 18.019 4.10501 18.019 4.87481C18.019 5.64461 17.395 6.26866 16.6252 6.26866Z" fill="#517A91"/>
<path d="M37.0531 31.519L7.05969 37.238C5.43217 37.5483 3.86122 36.4805 3.55089 34.853L0.561998 19.1776C0.251669 17.5501 1.31946 15.9791 2.94699 15.6688L32.9404 9.94982C34.568 9.63949 36.1389 10.7073 36.4492 12.3348L39.4381 28.0102C39.7484 29.6377 38.6807 31.2086 37.0531 31.519Z" fill="#FF4D41"/>
<g clip-path="url(#clip0)">
<path d="M18.0785 23.9121L14.641 21.8097C14.2612 21.5774 14.1416 21.0813 14.374 20.7019L14.6543 20.2437C14.8866 19.8638 15.3828 19.7442 15.7621 19.9767L19.1995 22.0789L21.3018 18.641C21.534 18.2612 22.0302 18.1416 22.4096 18.374L22.8684 18.6541C23.2482 18.8865 23.3678 19.3827 23.1354 19.762L21.0327 23.2001L24.4701 25.3024C24.85 25.5347 24.9696 26.0309 24.7371 26.4103L24.4568 26.8685C24.2245 27.2483 23.7283 27.3679 23.349 27.1355L19.9115 25.0332L17.8093 28.4706C17.5769 28.8505 17.0807 28.9701 16.7014 28.7377L16.2431 28.4574C15.8633 28.225 15.7437 27.7288 15.9761 27.3495L18.0785 23.9121Z" fill="white"/>
</g>
<defs>
<clipPath id="clip0">
<rect width="9.21" height="9.21" fill="white" transform="matrix(-0.972165 0.234298 0.234298 0.972165 22.9536 18)"/>
</clipPath>
</defs>
</svg>
